<svg width="900" height="1200" viewBox="0 0 900 1200" fill="none" xmlns="http://www.w3.org/2000/svg">
  <defs>
    <linearGradient id="bg" x1="450" y1="0" x2="450" y2="1200" gradientUnits="userSpaceOnUse">
      <stop stop-color="#FBF8F2"/>
      <stop offset="1" stop-color="#F1ECE1"/>
    </linearGradient>
    <linearGradient id="gold" x1="210" y1="120" x2="690" y2="1080" gradientUnits="userSpaceOnUse">
      <stop stop-color="#F1D28B"/>
      <stop offset="0.45" stop-color="#C9A45A"/>
      <stop offset="1" stop-color="#8F6830"/>
    </linearGradient>
    <linearGradient id="goldSoft" x1="450" y1="200" x2="450" y2="1060" gradientUnits="userSpaceOnUse">
      <stop stop-color="#E7C476"/>
      <stop offset="1" stop-color="#9A7236"/>
    </linearGradient>
    <filter id="shadow" x="116" y="66" width="668" height="1068" filterUnits="userSpaceOnUse" color-interpolation-filters="sRGB">
      <feFlood flood-opacity="0" result="BackgroundImageFix"/>
      <feColorMatrix in="SourceAlpha" type="matrix" values="0 0 0 0 0 0 0 0 0 0 0 0 0 0 0 0 0 0 127 0" result="hardAlpha"/>
      <feOffset dy="14"/>
      <feGaussianBlur stdDeviation="18"/>
      <feComposite in2="hardAlpha" operator="out"/>
      <feColorMatrix type="matrix" values="0 0 0 0 0.18 0 0 0 0 0.14 0 0 0 0 0.09 0 0 0 0.18 0"/>
      <feBlend mode="normal" in2="BackgroundImageFix" result="effect1_dropShadow_1_1"/>
      <feBlend mode="normal" in="SourceGraphic" in2="effect1_dropShadow_1_1" result="shape"/>
    </filter>
  </defs>

  <rect width="900" height="1200" rx="56" fill="url(#bg)"/>

  <g filter="url(#shadow)">
    <path d="M450 1040C401 1018 337 967 292 908C238 837 208 756 194 673C180 587 184 489 210 404C240 306 302 219 383 161" stroke="#1A1816" stroke-width="12" stroke-linecap="round"/>
    <path d="M450 1040C499 1018 563 967 608 908C662 837 692 756 706 673C720 587 716 489 690 404C660 306 598 219 517 161" stroke="#1A1816" stroke-width="12" stroke-linecap="round"/>

    <path d="M450 1018C405 998 346 951 305 896C254 827 226 749 213 668C200 585 205 492 229 412C256 321 312 239 387 186" stroke="url(#gold)" stroke-width="8" stroke-linecap="round"/>
    <path d="M450 1018C495 998 554 951 595 896C646 827 674 749 687 668C700 585 695 492 671 412C644 321 588 239 513 186" stroke="url(#gold)" stroke-width="8" stroke-linecap="round"/>

    <g fill="#161413" stroke="url(#goldSoft)" stroke-width="3.5">
      <ellipse cx="300" cy="872" rx="28" ry="74" transform="rotate(-33 300 872)"/>
      <ellipse cx="260" cy="778" rx="24" ry="64" transform="rotate(-29 260 778)"/>
      <ellipse cx="235" cy="680" rx="22" ry="58" transform="rotate(-23 235 680)"/>
      <ellipse cx="232" cy="580" rx="20" ry="54" transform="rotate(-13 232 580)"/>
      <ellipse cx="249" cy="484" rx="22" ry="58" transform="rotate(-3 249 484)"/>
      <ellipse cx="285" cy="392" rx="24" ry="64" transform="rotate(9 285 392)"/>
      <ellipse cx="340" cy="307" rx="26" ry="68" transform="rotate(21 340 307)"/>
      <ellipse cx="409" cy="238" rx="24" ry="60" transform="rotate(34 409 238)"/>

      <ellipse cx="600" cy="872" rx="28" ry="74" transform="rotate(33 600 872)"/>
      <ellipse cx="640" cy="778" rx="24" ry="64" transform="rotate(29 640 778)"/>
      <ellipse cx="665" cy="680" rx="22" ry="58" transform="rotate(23 665 680)"/>
      <ellipse cx="668" cy="580" rx="20" ry="54" transform="rotate(13 668 580)"/>
      <ellipse cx="651" cy="484" rx="22" ry="58" transform="rotate(3 651 484)"/>
      <ellipse cx="615" cy="392" rx="24" ry="64" transform="rotate(-9 615 392)"/>
      <ellipse cx="560" cy="307" rx="26" ry="68" transform="rotate(-21 560 307)"/>
      <ellipse cx="491" cy="238" rx="24" ry="60" transform="rotate(-34 491 238)"/>
    </g>

    <g fill="url(#gold)">
      <circle cx="262" cy="829" r="9"/>
      <circle cx="229" cy="624" r="9"/>
      <circle cx="280" cy="431" r="9"/>
      <circle cx="358" cy="270" r="9"/>
      <circle cx="638" cy="829" r="9"/>
      <circle cx="671" cy="624" r="9"/>
      <circle cx="620" cy="431" r="9"/>
      <circle cx="542" cy="270" r="9"/>
    </g>

    <path d="M450 1045C404 1013 372 981 356 949C385 951 415 961 450 981C485 961 515 951 544 949C528 981 496 1013 450 1045Z" fill="#171412" stroke="url(#gold)" stroke-width="4"/>
    <path d="M450 995C428 978 414 961 408 944C423 946 438 953 450 964C462 953 477 946 492 944C486 961 472 978 450 995Z" fill="url(#gold)" opacity="0.95"/>

    <path d="M450 154C424 177 399 194 372 208C385 171 411 141 450 122C489 141 515 171 528 208C501 194 476 177 450 154Z" fill="#161311" stroke="url(#gold)" stroke-width="4"/>
  </g>
</svg>
